<?xml version="1.0" encoding="UTF-8" standalone="no"?>
<!-- Created with Inkscape (http://www.inkscape.org/) -->

<svg
   xmlns:dc="http://purl.org/dc/elements/1.1/"
   xmlns:cc="http://creativecommons.org/ns#"
   xmlns:rdf="http://www.w3.org/1999/02/22-rdf-syntax-ns#"
   xmlns:svg="http://www.w3.org/2000/svg"
   xmlns="http://www.w3.org/2000/svg"
   xmlns:sodipodi="http://sodipodi.sourceforge.net/DTD/sodipodi-0.dtd"
   xmlns:inkscape="http://www.inkscape.org/namespaces/inkscape"
   id="svg3004"
   version="1.1"
   inkscape:version="0.48.2 r9819"
   width="1280"
   height="960"
   xml:space="preserve"
   sodipodi:docname="plse-icon.pdf"><metadata
     id="metadata3010"><rdf:RDF><cc:Work
         rdf:about=""><dc:format>image/svg+xml</dc:format><dc:type
           rdf:resource="http://purl.org/dc/dcmitype/StillImage" /><dc:title></dc:title></cc:Work></rdf:RDF></metadata><defs
     id="defs3008"><clipPath
       clipPathUnits="userSpaceOnUse"
       id="clipPath3024"><path
         d="m 0,0 1024,0 0,768 L 0,768 0,0 z"
         id="path3026" /></clipPath><clipPath
       clipPathUnits="userSpaceOnUse"
       id="clipPath3881"><path
         inkscape:connector-curvature="0"
         id="path3883"
         style="fill:#5f327c;fill-opacity:1;fill-rule:nonzero;stroke:none"
         d="M 33.8868,370.1459 33.6941,40.9165 c 0,-22.6666 18.5677,-41.3853 41.2343,-41.3853 l 329.5314,0 c 22.6666,0 41.2343,18.7187 41.2343,41.3853 l 0,329.2294 c 0,22.6666 -18.5677,41.3853 -41.2343,41.3853 l -329.5314,0 c -22.6666,0 -41.0416,-18.7187 -41.0416,-41.3853 z" /></clipPath><clipPath
       clipPathUnits="userSpaceOnUse"
       id="clipPath3885"><path
         inkscape:connector-curvature="0"
         id="path3887"
         style="fill:#5f327c;fill-opacity:1;fill-rule:nonzero;stroke:none"
         d="M 306.1927,219.3853 306,548.6147 C 306,571.2813 324.5677,590 347.2343,590 l 329.5314,0 C 699.4323,590 718,571.2813 718,548.6147 l 0,-329.2294 C 718,196.7187 699.4323,178 676.7657,178 l -329.5314,0 c -22.6666,0 -41.0416,18.7187 -41.0416,41.3853 z" /></clipPath></defs><sodipodi:namedview
     pagecolor="#ffffff"
     bordercolor="#666666"
     borderopacity="1"
     objecttolerance="10"
     gridtolerance="10"
     guidetolerance="10"
     inkscape:pageopacity="0"
     inkscape:pageshadow="2"
     inkscape:window-width="1440"
     inkscape:window-height="852"
     id="namedview3006"
     showgrid="false"
     inkscape:zoom="0.93397021"
     inkscape:cx="642.46845"
     inkscape:cy="459.53831"
     inkscape:window-x="1"
     inkscape:window-y="0"
     inkscape:window-maximized="0"
     inkscape:current-layer="g3012" /><g
     id="g3012"
     inkscape:groupmode="layer"
     inkscape:label="plse-icon"
     transform="matrix(1.25,0,0,-1.25,0,960)"><g
       id="g3014" /><g
       id="g3016"><path
         d="m 0,0 1024,0 0,768 L 0,768 0,0 z"
         style="fill:#ffffff;fill-opacity:1;fill-rule:nonzero;stroke:none"
         id="path3018" /></g><path
       d="M 0,768 1024,768 1024,0 0,0 0,768 z"
       style="fill:#ffffff;fill-opacity:1;fill-rule:nonzero;stroke:none"
       id="path3028"
       inkscape:connector-curvature="0"
       clip-path="url(#clipPath3885)" /><path
       d="M 306.1927,219.3853 306,548.6147 C 306,571.2813 324.5677,590 347.2343,590 l 329.5314,0 C 699.4323,590 718,571.2813 718,548.6147 l 0,-329.2294 C 718,196.7187 699.4323,178 676.7657,178 l -329.5314,0 c -22.6666,0 -41.0416,18.7187 -41.0416,41.3853 z"
       style="fill:#5f327c;fill-opacity:1;fill-rule:nonzero;stroke:none"
       id="path3030"
       inkscape:connector-curvature="0" /><g
       id="g3032"
       transform="matrix(1,0,0,-1,272.3059,589.5312)"
       style="stroke:#ffffff"
       clip-path="url(#clipPath3881)"><path
         d="m -0.3059082,206.0312 133.1067082,0 61.28562,-187.860853 97.48941,391.961473 53.55307,-205.10062 120.5652,0"
         style="fill:none;stroke:#ffffff;stroke-width:52.59999847000000273;stroke-linecap:butt;stroke-linejoin:miter;stroke-miterlimit:4;stroke-opacity:1;stroke-dasharray:none"
         id="path3034"
         inkscape:connector-curvature="0"
         sodipodi:nodetypes="cccccc" /></g></g></svg>