<?xml version="1.0" encoding="UTF-8" standalone="no"?>
<!-- Created with Inkscape (http://www.inkscape.org/) -->

<svg
   xmlns:dc="http://purl.org/dc/elements/1.1/"
   xmlns:cc="http://creativecommons.org/ns#"
   xmlns:rdf="http://www.w3.org/1999/02/22-rdf-syntax-ns#"
   xmlns:svg="http://www.w3.org/2000/svg"
   xmlns="http://www.w3.org/2000/svg"
   xmlns:sodipodi="http://sodipodi.sourceforge.net/DTD/sodipodi-0.dtd"
   xmlns:inkscape="http://www.inkscape.org/namespaces/inkscape"
   id="svg3004"
   version="1.1"
   inkscape:version="0.48.5 r10040"
   width="3000"
   height="960"
   xml:space="preserve"
   sodipodi:docname="plse-logo.svg"
   inkscape:export-filename="/home/stuart/uw-plse.github.io/logo/plse-logo.png"
   inkscape:export-xdpi="12.58"
   inkscape:export-ydpi="12.58"><metadata
     id="metadata3010"><rdf:RDF><cc:Work
         rdf:about=""><dc:format>image/svg+xml</dc:format><dc:type
           rdf:resource="http://purl.org/dc/dcmitype/StillImage" /><dc:title></dc:title></cc:Work></rdf:RDF></metadata><defs
     id="defs3008"><clipPath
       clipPathUnits="userSpaceOnUse"
       id="clipPath3024"><path
         d="m 0,0 1024,0 0,768 L 0,768 0,0 z"
         id="path3026"
         inkscape:connector-curvature="0" /></clipPath><clipPath
       clipPathUnits="userSpaceOnUse"
       id="clipPath3885"><path
         inkscape:connector-curvature="0"
         id="path3887"
         style="fill:#5f327c;fill-opacity:1;fill-rule:nonzero;stroke:none"
         d="M 306.1927,219.3853 306,548.6147 C 306,571.2813 324.5677,590 347.2343,590 l 329.5314,0 C 699.4323,590 718,571.2813 718,548.6147 l 0,-329.2294 C 718,196.7187 699.4323,178 676.7657,178 l -329.5314,0 c -22.6666,0 -41.0416,18.7187 -41.0416,41.3853 z" /></clipPath><clipPath
       clipPathUnits="userSpaceOnUse"
       id="clipPath3800"><path
         d="M 306.1927,219.3853 306,548.6147 C 306,571.2813 324.5677,590 347.2343,590 l 329.5314,0 C 699.4323,590 718,571.2813 718,548.6147 l 0,-329.2294 C 718,196.7187 699.4323,178 676.7657,178 l -329.5314,0 c -22.6666,0 -41.0416,18.7187 -41.0416,41.3853 z"
         style="fill:#ff0000;fill-opacity:1;fill-rule:nonzero;stroke:none;display:inline"
         id="path3802"
         inkscape:connector-curvature="0" /></clipPath></defs><sodipodi:namedview
     pagecolor="#ffffff"
     bordercolor="#666666"
     borderopacity="1"
     objecttolerance="10"
     gridtolerance="10"
     guidetolerance="10"
     inkscape:pageopacity="0"
     inkscape:pageshadow="2"
     inkscape:window-width="2878"
     inkscape:window-height="1584"
     id="namedview3006"
     showgrid="false"
     inkscape:zoom="0.93397021"
     inkscape:cx="1290.6876"
     inkscape:cy="475.65876"
     inkscape:window-x="0"
     inkscape:window-y="34"
     inkscape:window-maximized="0"
     inkscape:current-layer="g3012" /><g
     id="g3012"
     inkscape:groupmode="layer"
     inkscape:label="plse-icon"
     transform="matrix(1.25,0,0,-1.25,0,960)"
     style="display:inline"><g
       id="g3796"
       clip-path="url(#clipPath3800)"
       transform="translate(-9.765625e-5,0)"><rect
         transform="scale(1,-1)"
         y="-622.71796"
         x="247.54536"
         height="464.25464"
         width="497.6604"
         id="rect3794"
         style="fill:#5f327c;fill-opacity:1;stroke:none" /><path
         d="m 271.99999,383.5 133.10671,0 61.28562,187.86085 L 563.88173,179.39938 617.4348,384.5 738,384.5"
         style="fill:none;stroke:#ffffff;stroke-width:52.59999847;stroke-linecap:butt;stroke-linejoin:miter;stroke-miterlimit:10;stroke-opacity:1;stroke-dasharray:none;display:inline"
         id="path3034"
         inkscape:connector-curvature="0"
         sodipodi:nodetypes="cccccc" /></g><g
       id="g3269"
       transform="matrix(0,-2.6503722,-2.6503722,0,1661.0984,4819.4003)"
       style="fill:#5f327c;fill-opacity:1"><g
         transform="matrix(1.25,0,0,1.25,1744.7021,346.36159)"
         id="use52"
         style="fill:#5f327c;fill-opacity:1;display:inline"><path
           inkscape:connector-curvature="0"
           style="fill:#5f327c;fill-opacity:1;stroke:none"
           d="m -59.265625,-27.5625 -41.750005,0 0,-29.640625 c 0,-8.601563 1.781255,-14.894531 5.343755,-18.875 3.554687,-3.976563 8.730469,-5.96875 15.53125,-5.96875 6.804687,0 12.011719,1.992187 15.625,5.96875 3.605469,3.980469 5.355469,10.273437 5.25,18.875 z m -54.500005,15.140625 113.76563,0 0,-15.140625 -46.53125,0 0,-34.734375 c 0.117188,-11.46875 -2.800781,-20.148437 -8.75,-26.046875 -5.945312,-5.894531 -14.234375,-8.84375 -24.859375,-8.84375 -10.625,0 -18.882813,2.949219 -24.781255,8.84375 -5.89453,5.898438 -8.84375,14.578125 -8.84375,26.046875 z"
           id="path3158" /></g><g
         transform="matrix(1.25,0,0,1.25,1744.7021,217.30588)"
         id="use54"
         style="fill:#5f327c;fill-opacity:1;display:inline"><path
           inkscape:connector-curvature="0"
           style="fill:#5f327c;fill-opacity:1;stroke:none"
           d="m -113.76563,-12.421875 113.76563,0 0,-75.375 -12.75,0 0,60.234375 -101.01563,0 z"
           id="path3162" /></g><g
         transform="matrix(1.25,0,0,1.25,1744.7021,106.5728)"
         id="use56"
         style="fill:#5f327c;fill-opacity:1;display:inline"><path
           inkscape:connector-curvature="0"
           style="fill:#5f327c;fill-opacity:1;stroke:none"
           d="m -80.453125,-78.234375 0,-14.328125 c -6.269531,0.210938 -11.660156,1.402344 -16.171875,3.578125 -4.51953,2.179687 -8.26563,5.152344 -11.23438,8.921875 -2.97656,3.773438 -5.15625,8.15625 -6.53125,13.15625 -1.38281,4.992188 -2.07812,10.402344 -2.07812,16.234375 0,5.210937 0.66797,10.28125 2,15.21875 1.32422,4.9375 3.33984,9.351563 6.04687,13.234375 2.71094,3.875 6.16407,6.980469 10.35938,9.3125 4.199219,2.335938 9.164062,3.5 14.890625,3.5 5.210937,0 9.542969,-1.03125 13,-3.09375 3.449219,-2.070312 6.261719,-4.832031 8.4375,-8.28125 2.179687,-3.457031 3.933594,-7.363281 5.265625,-11.71875 1.324219,-4.351562 2.492188,-8.785156 3.5,-13.296875 1,-4.519531 1.980469,-8.957031 2.9375,-13.3125 0.960938,-4.351563 2.210938,-8.253906 3.75,-11.703125 1.542969,-3.457031 3.539062,-6.222656 5.984375,-8.296875 2.4375,-2.070313 5.621094,-3.109375 9.546875,-3.109375 4.148438,0 7.546875,0.855469 10.203125,2.5625 2.65625,1.699219 4.757813,3.929688 6.296875,6.6875 1.53125,2.761719 2.621094,5.871094 3.265625,9.328125 0.636719,3.449219 0.953125,6.871094 0.953125,10.265625 0,4.25 -0.53125,8.398438 -1.59375,12.4375 -1.0625,4.03125 -2.707031,7.5625 -4.9375,10.59375 -2.238281,3.023438 -5.082031,5.464844 -8.53125,7.328125 -3.445312,1.855469 -7.5625,2.78125 -12.34375,2.78125 l 0,14.34375 c 6.90625,0 12.882812,-1.25 17.921875,-3.75 5.042969,-2.5 9.183594,-5.898437 12.421875,-10.203125 3.242188,-4.300781 5.65625,-9.289062 7.25,-14.96875 C 1.75,-40.5 2.546875,-46.523438 2.546875,-52.890625 c 0,-5.207031 -0.609375,-10.441406 -1.828125,-15.703125 -1.21875,-5.257812 -3.179688,-10.007812 -5.890625,-14.25 -2.707031,-4.25 -6.210937,-7.726562 -10.515625,-10.4375 -4.300781,-2.707031 -9.484375,-4.0625 -15.546875,-4.0625 -5.625,0 -10.296875,1.039062 -14.015625,3.109375 -3.71875,2.0625 -6.796875,4.824219 -9.234375,8.28125 -2.445313,3.449219 -4.382813,7.351563 -5.8125,11.703125 -1.4375,4.355469 -2.6875,8.792969 -3.75,13.3125 -1.0625,4.511719 -2.046875,8.945312 -2.953125,13.296875 -0.90625,4.355469 -2.046875,8.261719 -3.421875,11.71875 -1.382813,3.449219 -3.164063,6.210937 -5.34375,8.28125 -2.175781,2.074219 -5.015625,3.109375 -8.515625,3.109375 -3.71875,0 -6.820312,-0.71875 -9.3125,-2.15625 -2.5,-1.4375 -4.492188,-3.347656 -5.984375,-5.734375 -1.488285,-2.394531 -2.550785,-5.128906 -3.187505,-8.203125 -0.63281,-3.082031 -0.95312,-6.21875 -0.95312,-9.40625 0,-7.851562 1.83594,-14.300781 5.5,-19.34375 3.65625,-5.050781 9.578125,-8.003906 17.765625,-8.859375 z"
           id="path3061" /></g><g
         transform="matrix(1.25,0,0,1.25,1744.7021,-22.482952)"
         id="use58"
         style="fill:#5f327c;fill-opacity:1;display:inline"><path
           inkscape:connector-curvature="0"
           style="fill:#5f327c;fill-opacity:1;stroke:none"
           d="m -113.76563,-12.421875 113.76563,0 0,-79.03125 -12.75,0 0,63.890625 -39.34375,0 0,-59.109375 -12.75,0 0,59.109375 -36.17188,0 0,-63.40625 -12.75,0 z"
           id="path3166" /></g></g></g><g
     inkscape:groupmode="layer"
     id="layer2"
     inkscape:label="Layer" /></svg>