<?xml version="1.0" encoding="UTF-8" standalone="no"?>
<!-- Created with Inkscape (http://www.inkscape.org/) -->

<svg
   xmlns:dc="http://purl.org/dc/elements/1.1/"
   xmlns:cc="http://creativecommons.org/ns#"
   xmlns:rdf="http://www.w3.org/1999/02/22-rdf-syntax-ns#"
   xmlns:svg="http://www.w3.org/2000/svg"
   xmlns="http://www.w3.org/2000/svg"
   xmlns:sodipodi="http://sodipodi.sourceforge.net/DTD/sodipodi-0.dtd"
   xmlns:inkscape="http://www.inkscape.org/namespaces/inkscape"
   id="svg3004"
   version="1.1"
   inkscape:version="0.48.5 r10040"
   width="1280"
   height="960"
   xml:space="preserve"
   sodipodi:docname="plse-icon.svg"
   inkscape:export-filename="/home/stuart/uw-plse.github.io/logo/plse-icon-hires.png"
   inkscape:export-xdpi="174.75728"
   inkscape:export-ydpi="174.75728"><metadata
     id="metadata3010"><rdf:RDF><cc:Work
         rdf:about=""><dc:format>image/svg+xml</dc:format><dc:type
           rdf:resource="http://purl.org/dc/dcmitype/StillImage" /><dc:title></dc:title></cc:Work></rdf:RDF></metadata><defs
     id="defs3008"><clipPath
       clipPathUnits="userSpaceOnUse"
       id="clipPath3024"><path
         d="m 0,0 1024,0 0,768 L 0,768 0,0 z"
         id="path3026" /></clipPath><clipPath
       clipPathUnits="userSpaceOnUse"
       id="clipPath3885"><path
         inkscape:connector-curvature="0"
         id="path3887"
         style="fill:#5f327c;fill-opacity:1;fill-rule:nonzero;stroke:none"
         d="M 306.1927,219.3853 306,548.6147 C 306,571.2813 324.5677,590 347.2343,590 l 329.5314,0 C 699.4323,590 718,571.2813 718,548.6147 l 0,-329.2294 C 718,196.7187 699.4323,178 676.7657,178 l -329.5314,0 c -22.6666,0 -41.0416,18.7187 -41.0416,41.3853 z" /></clipPath><clipPath
       clipPathUnits="userSpaceOnUse"
       id="clipPath3800"><path
         d="M 306.1927,219.3853 306,548.6147 C 306,571.2813 324.5677,590 347.2343,590 l 329.5314,0 C 699.4323,590 718,571.2813 718,548.6147 l 0,-329.2294 C 718,196.7187 699.4323,178 676.7657,178 l -329.5314,0 c -22.6666,0 -41.0416,18.7187 -41.0416,41.3853 z"
         style="fill:#ff0000;fill-opacity:1;fill-rule:nonzero;stroke:none;display:inline"
         id="path3802"
         inkscape:connector-curvature="0" /></clipPath></defs><sodipodi:namedview
     pagecolor="#ffffff"
     bordercolor="#666666"
     borderopacity="1"
     objecttolerance="10"
     gridtolerance="10"
     guidetolerance="10"
     inkscape:pageopacity="0"
     inkscape:pageshadow="2"
     inkscape:window-width="2878"
     inkscape:window-height="1584"
     id="namedview3006"
     showgrid="false"
     inkscape:zoom="0.93397021"
     inkscape:cx="547.97935"
     inkscape:cy="249.62738"
     inkscape:window-x="0"
     inkscape:window-y="34"
     inkscape:window-maximized="0"
     inkscape:current-layer="g3796" /><g
     id="g3012"
     inkscape:groupmode="layer"
     inkscape:label="plse-icon"
     transform="matrix(1.25,0,0,-1.25,0,960)"
     style="display:inline"><g
       id="g3796"
       clip-path="url(#clipPath3800)"><rect
         transform="scale(1,-1)"
         y="-622.71796"
         x="247.54536"
         height="464.25464"
         width="497.6604"
         id="rect3794"
         style="stroke:none;stroke-width:52.59999847000000273;stroke-miterlimit:10;stroke-dasharray:none;fill:#5f327c;fill-opacity:1" /><path
         d="m 271.99999,383.5 133.10671,0 61.28562,187.86085 L 563.88173,179.39938 617.4348,384.5 738,384.5"
         style="display:inline;fill:none;stroke:#ffffff;stroke-width:52.59999847000000273;stroke-linecap:butt;stroke-linejoin:miter;stroke-miterlimit:10;stroke-opacity:1;stroke-dasharray:none"
         id="path3034"
         inkscape:connector-curvature="0"
         sodipodi:nodetypes="cccccc" /></g></g></svg>